<svg width="51" height="39" viewBox="0 0 51 39" fill="none" xmlns="http://www.w3.org/2000/svg">
<path d="M42.8264 3.87552C39.5434 2.38078 36.0759 1.33002 32.5154 0.750977C32.028 1.61335 31.5875 2.49968 31.1938 3.40996C27.4028 2.84429 23.5489 2.84429 19.7579 3.40996C19.3645 2.50097 18.9234 1.61341 18.4363 0.750977C14.8743 1.35089 11.4061 2.41011 8.12529 3.90676C1.595 13.4679 -0.185986 22.779 0.72013 31.9651C4.55208 34.7602 8.83111 36.8839 13.3745 38.2455C14.3994 36.8832 15.3055 35.4365 16.0835 33.9336C14.6025 33.3833 13.1706 32.7091 11.8029 31.9183C12.1632 31.66 12.5121 31.4006 12.8496 31.1402C16.8144 32.9805 21.1329 33.9338 25.504 33.9338C29.8751 33.9338 34.1935 32.9805 38.1584 31.1402C38.5021 31.4173 38.851 31.6766 39.2051 31.9183C37.8404 32.7157 36.4079 33.3911 34.9245 33.9367C35.7025 35.449 36.6086 36.8957 37.6334 38.2486C42.1953 36.8894 46.4759 34.7803 50.2878 31.9683C51.3252 21.3136 48.5131 12.0962 42.8514 3.87864L42.8264 3.87552ZM17.174 26.3097C14.7087 26.3097 12.6746 24.0944 12.6746 21.3729C12.6746 18.6515 14.64 16.4049 17.174 16.4049C19.7017 16.4049 21.7358 18.639 21.6733 21.3729C21.6295 24.0975 19.6861 26.3097 17.174 26.3097ZM33.7965 26.3097C31.3281 26.3097 29.2972 24.0944 29.2972 21.3729C29.2972 18.6515 31.2625 16.4049 33.7965 16.4049C36.3305 16.4049 38.3271 18.639 38.2958 21.3729C38.2521 24.0975 36.3149 26.3097 33.7965 26.3097Z" fill="white"/>
</svg>
