<svg width="51" height="41" viewBox="0 0 51 41" fill="none" xmlns="http://www.w3.org/2000/svg">
<path fill-rule="evenodd" clip-rule="evenodd" d="M8 40.5C6.01088 40.5 4.10322 39.7098 2.6967 38.3033C1.29018 36.8968 0.5 34.9891 0.5 33V8C0.5 6.01088 1.29018 4.10322 2.6967 2.6967C4.10322 1.29018 6.01088 0.5 8 0.5H43C44.9891 0.5 46.8968 1.29018 48.3033 2.6967C49.7098 4.10322 50.5 6.01088 50.5 8V33C50.5 34.9891 49.7098 36.8968 48.3033 38.3033C46.8968 39.7098 44.9891 40.5 43 40.5H8ZM14.5625 11.05C14.3078 10.8325 14.0121 10.6685 13.6928 10.5675C13.3735 10.4665 13.0372 10.4308 12.7038 10.4623C12.3704 10.4938 12.0467 10.592 11.752 10.751C11.4573 10.91 11.1975 11.1266 10.9881 11.3879C10.7787 11.6493 10.624 11.95 10.533 12.2723C10.4421 12.5946 10.4168 12.9318 10.4587 13.2641C10.5007 13.5963 10.6089 13.9168 10.777 14.2064C10.9452 14.496 11.1698 14.7489 11.4375 14.95L20.8125 22.4525C22.1427 23.5175 23.796 24.0978 25.5 24.0978C27.204 24.0978 28.8573 23.5175 30.1875 22.4525L39.5625 14.9525C39.8189 14.7473 40.0324 14.4936 40.1908 14.2059C40.3491 13.9182 40.4493 13.6022 40.4855 13.2758C40.5217 12.9494 40.4933 12.619 40.4018 12.3036C40.3104 11.9882 40.1577 11.6939 39.9525 11.4375C39.7473 11.1811 39.4936 10.9676 39.2059 10.8092C38.9182 10.6509 38.6022 10.5507 38.2758 10.5145C37.9494 10.4783 37.619 10.5067 37.3036 10.5982C36.9882 10.6896 36.6939 10.8423 36.4375 11.0475L27.0625 18.5475C26.6191 18.9025 26.068 19.0959 25.5 19.0959C24.932 19.0959 24.3809 18.9025 23.9375 18.5475L14.5625 11.05Z" fill="white"/>
</svg>
