<svg width="51" height="50" viewBox="0 0 51 50" fill="none" xmlns="http://www.w3.org/2000/svg">
<path fill-rule="evenodd" clip-rule="evenodd" d="M25.5 0.616699C11.6875 0.616699 0.5 11.8042 0.5 25.6167C0.5 36.6792 7.65625 46.0229 17.5938 49.3354C18.8438 49.5542 19.3125 48.8042 19.3125 48.1479C19.3125 47.5542 19.2812 45.5854 19.2812 43.4917C13 44.6479 11.375 41.9604 10.875 40.5542C10.5938 39.8354 9.375 37.6167 8.3125 37.0229C7.4375 36.5542 6.1875 35.3979 8.28125 35.3667C10.25 35.3354 11.6562 37.1792 12.125 37.9292C14.375 41.7104 17.9687 40.6479 19.4062 39.9917C19.625 38.3667 20.2812 37.2729 21 36.6479C15.4375 36.0229 9.625 33.8667 9.625 24.3042C9.625 21.5854 10.5938 19.3354 12.1875 17.5854C11.9375 16.9604 11.0625 14.3979 12.4375 10.9604C12.4375 10.9604 14.5312 10.3042 19.3125 13.5229C21.3125 12.9604 23.4375 12.6792 25.5625 12.6792C27.6875 12.6792 29.8125 12.9604 31.8125 13.5229C36.5938 10.2729 38.6875 10.9604 38.6875 10.9604C40.0625 14.3979 39.1875 16.9604 38.9375 17.5854C40.5312 19.3354 41.5 21.5542 41.5 24.3042C41.5 33.8979 35.6562 36.0229 30.0937 36.6479C31 37.4292 31.7812 38.9292 31.7812 41.2729C31.7812 44.6167 31.75 47.3042 31.75 48.1479C31.75 48.8042 32.2187 49.5854 33.4688 49.3354C38.4316 47.6599 42.7441 44.4702 45.7993 40.2154C48.8545 35.9606 50.4985 30.8548 50.5 25.6167C50.5 11.8042 39.3125 0.616699 25.5 0.616699Z" fill="white"/>
</svg>
