<svg width="51" height="44" viewBox="0 0 51 44" fill="none" xmlns="http://www.w3.org/2000/svg">
<path fill-rule="evenodd" clip-rule="evenodd" d="M45.3209 0.935286C45.9356 0.676541 46.6085 0.587302 47.2694 0.676855C47.9304 0.766409 48.5553 1.03148 49.079 1.44448C49.6028 1.85749 50.0062 2.40332 50.2474 3.02517C50.4887 3.64702 50.5588 4.32216 50.4505 4.98031L44.8084 39.2038C44.2611 42.505 40.639 44.3981 37.6114 42.7537C35.0789 41.378 31.3175 39.2585 27.9342 37.0469C26.2426 35.9399 21.0607 32.3949 21.6975 29.8724C22.2448 27.7155 30.9518 19.6105 35.9272 14.7918C37.8801 12.8987 36.9895 11.8066 34.6834 13.548C28.9567 17.8716 19.7621 24.4467 16.7221 26.2975C14.0403 27.9295 12.6422 28.2081 10.9705 27.9295C7.92057 27.422 5.09204 26.6359 2.78344 25.6781C-0.336151 24.3845 -0.1844 20.0957 2.78095 18.8468L45.3209 0.935286Z" fill="white"/>
</svg>
