<svg width="51" height="50" viewBox="0 0 51 50" fill="none" xmlns="http://www.w3.org/2000/svg">
<path fill-rule="evenodd" clip-rule="evenodd" d="M25.5 0C11.6925 0 0.5 11.1925 0.5 25C0.5 29.725 1.8125 34.15 4.095 37.92L1.865 45.5C1.73696 45.9352 1.72854 46.3969 1.84061 46.8365C1.95269 47.276 2.18112 47.6773 2.5019 47.9981C2.82268 48.3189 3.22395 48.5473 3.66354 48.6594C4.10313 48.7715 4.56479 48.763 5 48.635L12.58 46.405C16.4768 48.7624 20.9456 50.0058 25.5 50C39.3075 50 50.5 38.8075 50.5 25C50.5 11.1925 39.3075 0 25.5 0ZM19.845 30.6575C24.9025 35.7125 29.73 36.38 31.435 36.4425C34.0275 36.5375 36.5525 34.5575 37.535 32.26C37.658 31.974 37.7024 31.6603 37.6638 31.3514C37.6251 31.0424 37.5047 30.7494 37.315 30.5025C35.945 28.7525 34.0925 27.495 32.2825 26.245C31.9048 25.9831 31.4402 25.8779 30.9865 25.9516C30.5328 26.0252 30.1254 26.272 29.85 26.64L28.35 28.9275C28.2707 29.05 28.1479 29.1378 28.0063 29.1731C27.8647 29.2084 27.715 29.1885 27.5875 29.1175C26.57 28.535 25.0875 27.545 24.0225 26.48C22.9575 25.415 22.0275 24 21.505 23.0475C21.4418 22.9261 21.4239 22.7862 21.4546 22.6529C21.4853 22.5195 21.5626 22.4015 21.6725 22.32L23.9825 20.605C24.3131 20.319 24.5266 19.921 24.5819 19.4874C24.6373 19.0537 24.5307 18.6149 24.2825 18.255C23.1625 16.615 21.8575 14.53 19.965 13.1475C19.7202 12.9716 19.4342 12.862 19.1346 12.8291C18.835 12.7963 18.532 12.8414 18.255 12.96C15.955 13.945 13.965 16.47 14.06 19.0675C14.1225 20.7725 14.79 25.6 19.845 30.6575Z" fill="white"/>
</svg>
