<svg width="153" height="60" viewBox="0 0 153 60" fill="none" xmlns="http://www.w3.org/2000/svg">
<path d="M79.0004 21.976L86.2786 21.5056C86.4446 22.6956 86.749 23.5811 87.2472 24.2176C88.0497 25.2139 89.1566 25.712 90.6233 25.712C91.7026 25.712 92.5605 25.4629 93.1417 24.9371C93.6951 24.522 94.0272 23.8579 94.0272 23.166C94.0272 22.5019 93.7228 21.8654 93.197 21.4502C92.6435 20.9521 91.3429 20.454 89.295 20.0112C85.9465 19.264 83.5389 18.2678 82.1275 16.9948C80.7161 15.8048 79.9136 14.0614 79.969 12.2072C79.969 10.9342 80.3564 9.66124 81.0759 8.60963C81.9061 7.41966 83.0407 6.47876 84.3968 5.95296C85.8635 5.31646 87.9113 4.98438 90.485 4.98438C93.6398 4.98438 96.0474 5.56552 97.7078 6.75549C99.3682 7.91779 100.365 9.7996 100.669 12.3733L93.4737 12.7884C93.28 11.6814 92.8926 10.8789 92.2561 10.3531C91.6196 9.82728 90.7894 9.57821 89.7101 9.57821C88.8246 9.57821 88.1604 9.77193 87.7176 10.1317C87.3025 10.4638 87.0258 10.9619 87.0534 11.5154C87.0534 11.9305 87.2748 12.3179 87.6069 12.567C87.9667 12.8991 88.8245 13.2035 90.1806 13.4802C93.5291 14.1997 95.909 14.9192 97.3757 15.6664C98.8424 16.4136 99.8941 17.3269 100.531 18.4061C101.195 19.5131 101.527 20.7861 101.499 22.0867C101.499 23.6365 101.056 25.1862 100.171 26.4869C99.2575 27.8429 97.9846 28.8945 96.4902 29.531C94.9128 30.2228 92.9203 30.5826 90.5403 30.5826C86.3339 30.5826 83.4282 29.78 81.7954 28.1473C80.1627 26.5145 79.1941 24.4667 79.0004 21.976ZM1.76298 30.1675V5.42715H14.5206C16.8728 5.42715 18.6993 5.62087 19.9446 6.03598C21.1623 6.42341 22.2415 7.22595 22.9611 8.30522C23.7636 9.49519 24.151 10.8789 24.1234 12.3179C24.2064 14.7532 22.9611 17.0778 20.8302 18.2954C20 18.7659 19.0867 19.098 18.1458 19.264C18.8377 19.4577 19.5295 19.7898 20.1383 20.1773C20.6088 20.5647 20.9962 21.0075 21.356 21.4779C21.7711 21.9484 22.1308 22.4742 22.4353 23.0277L26.1435 30.1951H17.454L13.3583 22.5849C12.8325 21.6163 12.3897 20.9798 11.9746 20.6754C11.4211 20.2879 10.7569 20.0942 10.0928 20.0942H9.4286V30.1398H1.76298V30.1675ZM9.4286 15.445H12.6664C13.3583 15.3897 14.0224 15.279 14.6866 15.113C15.1847 15.0299 15.6275 14.7532 15.9319 14.3381C16.6791 13.3418 16.5684 11.9305 15.6552 11.0726C15.1571 10.6575 14.1885 10.4361 12.8048 10.4361H9.4286V15.445ZM0.0195312 51.3656L7.29772 50.8951C7.46377 52.0851 7.76818 52.9706 8.2663 53.6071C9.04117 54.6034 10.1758 55.1292 11.6425 55.1292C12.7218 55.1292 13.5797 54.8801 14.1608 54.3543C14.7143 53.9115 15.0464 53.275 15.0464 52.5832C15.0464 51.919 14.742 51.2825 14.2162 50.8674C13.6627 50.3693 12.362 49.8712 10.2865 49.4284C6.93796 48.6812 4.53035 47.6849 3.11899 46.412C1.70763 45.222 0.905091 43.4785 0.960438 41.6244C0.960438 40.3514 1.34787 39.0784 2.06739 38.0268C2.8976 36.8368 4.03222 35.8959 5.38824 35.3701C6.85494 34.7336 8.9028 34.4016 11.4765 34.4016C14.6313 34.4016 17.0389 34.9827 18.6993 36.1727C20.3597 37.3626 21.3283 39.2168 21.6327 41.7904L14.4375 42.2055C14.2438 41.0986 13.8564 40.2961 13.2199 39.7703C12.6111 39.2445 11.7532 38.9954 10.6739 39.0231C9.78836 39.0231 9.12419 39.2168 8.68141 39.6042C8.23863 39.9363 7.98957 40.4344 8.01724 40.9879C8.01724 41.403 8.23863 41.7904 8.57072 42.0395C8.93047 42.3716 9.78836 42.676 11.1444 42.9527C14.4929 43.6723 16.8728 44.3918 18.3395 45.139C19.8063 45.8862 20.8579 46.7994 21.4944 47.8787C22.1585 48.9856 22.4906 50.2586 22.4906 51.5316C22.4906 53.0813 22.0202 54.6034 21.1623 55.904C20.249 57.2601 18.976 58.3117 17.4817 58.9482C15.9043 59.64 13.9117 59.9998 11.5318 59.9998C7.3254 59.9998 4.41966 59.1972 2.7869 57.5645C1.15415 55.904 0.240921 53.8562 0.0195312 51.3656Z" fill="white"/>
<path d="M36.8256 49.4287L43.5226 51.4489C43.1629 53.137 42.4157 54.7421 41.3917 56.1534C40.4508 57.3987 39.2055 58.3673 37.7942 59.0038C36.3551 59.6403 34.5287 59.9724 32.3148 59.9724C29.6304 59.9724 27.4165 59.585 25.7284 58.8101C24.0126 58.0352 22.5459 56.6515 21.3006 54.6867C20.0553 52.7219 19.4465 50.2036 19.4465 47.1318C19.4465 43.0361 20.5257 39.8813 22.712 37.695C24.8982 35.5088 27.97 34.4019 31.955 34.4019C35.0821 34.4019 37.5174 35.0384 39.3162 36.2837C41.0873 37.5567 42.4157 39.4938 43.3012 42.0952L36.5488 43.5895C36.3828 43.0084 36.1337 42.4272 35.8017 41.9291C35.3865 41.348 34.8607 40.9052 34.2242 40.5731C33.5878 40.241 32.8682 40.1026 32.1487 40.1026C30.4053 40.1026 29.0769 40.7945 28.1637 42.2059C27.4719 43.2298 27.1121 44.8625 27.1121 47.0764C27.1121 49.8161 27.5272 51.6979 28.3574 52.7219C29.1876 53.7458 30.3499 54.2439 31.872 54.2439C33.3387 54.2439 34.4456 53.8288 35.1928 53.0263C35.94 52.1684 36.4935 50.9784 36.8256 49.4287ZM52.4612 34.817H60.0992V43.4788H68.4567V34.817H76.15V59.5573H68.4567V49.5394H60.0992V59.5573H52.4612V34.817Z" fill="white"/>
<path d="M75.0983 47.187C75.0983 43.1466 76.2329 39.9918 78.4745 37.7502C80.716 35.5086 83.8708 34.374 87.8835 34.374C92.0069 34.374 95.1617 35.481 97.4033 37.6949C99.6449 39.9088 100.752 43.0082 100.752 46.9932C100.752 49.899 100.254 52.2513 99.2851 54.1054C98.3442 55.9319 96.8775 57.4262 95.0787 58.4225C93.2246 59.4464 90.9276 59.9722 88.1879 59.9722C85.3929 59.9722 83.096 59.5295 81.2695 58.6439C79.3877 57.703 77.838 56.2363 76.814 54.4375C75.6794 52.5003 75.0983 50.0927 75.0983 47.187ZM82.7362 47.2146C82.7362 49.7053 83.2067 51.5041 84.1199 52.611C85.0331 53.6903 86.3061 54.2438 87.9112 54.2438C89.544 54.2438 90.817 53.718 91.7302 52.6387C92.6434 51.5594 93.0862 49.6499 93.0862 46.8826C93.0862 44.558 92.6157 42.8422 91.6748 41.7906C90.7339 40.7113 89.4609 40.1855 87.8559 40.1855C86.4445 40.1302 85.0885 40.739 84.1476 41.8183C83.2067 42.8975 82.7362 44.6963 82.7362 47.2146ZM108.583 47.187C108.583 43.1466 109.718 39.9918 111.96 37.7502C114.201 35.5086 117.356 34.374 121.369 34.374C125.492 34.374 128.675 35.481 130.889 37.6949C133.102 39.9088 134.237 43.0082 134.237 46.9932C134.237 49.899 133.739 52.2513 132.77 54.1054C131.829 55.9319 130.363 57.4262 128.564 58.4225C126.71 59.4464 124.413 59.9722 121.673 59.9722C118.878 59.9722 116.581 59.5295 114.755 58.6439C112.873 57.703 111.323 56.2363 110.299 54.4375C109.165 52.5003 108.583 50.0927 108.583 47.187ZM116.221 47.2146C116.221 49.7053 116.692 51.5041 117.605 52.611C118.518 53.6903 119.791 54.2438 121.396 54.2438C123.029 54.2438 124.302 53.718 125.215 52.6387C126.129 51.5594 126.571 49.6499 126.571 46.8826C126.571 44.558 126.101 42.8422 125.16 41.7906C124.219 40.7113 122.946 40.1855 121.341 40.1855C119.93 40.1302 118.546 40.739 117.633 41.8183C116.692 42.8975 116.221 44.6963 116.221 47.2146Z" fill="white"/>
<path d="M133.435 34.8169H141.073V53.469H153V59.5572H133.407V34.8169H133.435Z" fill="white"/>
<mask id="mask0_29_2445" style="mask-type:luminance" maskUnits="userSpaceOnUse" x="100" y="6" width="33" height="32">
<path d="M125.016 33.3894C132.706 27.5945 135.077 17.7712 130.313 11.4485C125.548 5.12581 115.452 4.69791 107.762 10.4928C100.072 16.2877 97.7007 26.1109 102.465 32.4336C107.23 38.7564 117.326 39.1842 125.016 33.3894Z" fill="white"/>
</mask>
<g mask="url(#mask0_29_2445)">
<mask id="mask1_29_2445" style="mask-type:luminance" maskUnits="userSpaceOnUse" x="82" y="-12" width="69" height="68">
<path d="M82.8539 18.8047L122.591 -11.1407L150.089 25.3479L110.351 55.2933L82.8539 18.8047Z" fill="white"/>
</mask>
<g mask="url(#mask1_29_2445)">
<mask id="mask2_29_2445" style="mask-type:luminance" maskUnits="userSpaceOnUse" x="100" y="6" width="33" height="32">
<path d="M125.016 33.3894C132.706 27.5945 135.077 17.7712 130.313 11.4485C125.548 5.12581 115.452 4.69791 107.762 10.4928C100.072 16.2877 97.7007 26.1109 102.465 32.4336C107.23 38.7564 117.326 39.1842 125.016 33.3894Z" fill="white"/>
</mask>
<g mask="url(#mask2_29_2445)">
<mask id="mask3_29_2445" style="mask-type:luminance" maskUnits="userSpaceOnUse" x="98" y="1" width="38" height="42">
<path d="M98.0183 34.8979L107.621 1.40623L135.207 9.3159L125.604 42.8076L98.0183 34.8979Z" fill="white"/>
</mask>
<g mask="url(#mask3_29_2445)">
<path d="M125.015 33.3889C132.705 27.594 135.076 17.7707 130.311 11.448C125.547 5.12532 115.45 4.69743 107.76 10.4923C100.071 16.2872 97.6993 26.1104 102.464 32.4331C107.229 38.7559 117.325 39.1838 125.015 33.3889Z" stroke="white" stroke-width="4" stroke-miterlimit="10"/>
</g>
<mask id="mask4_29_2445" style="mask-type:luminance" maskUnits="userSpaceOnUse" x="97" y="1" width="39" height="42">
<path d="M97.8854 35.0059L107.489 1.51431L135.075 9.42446L125.471 42.916L97.8854 35.0059Z" fill="white"/>
</mask>
<g mask="url(#mask4_29_2445)">
<path d="M93.9202 21.2412L121.746 0.273228L139.016 23.1922L111.191 44.1602L93.9202 21.2412Z" stroke="white" stroke-width="4" stroke-miterlimit="10"/>
</g>
<path d="M125.016 33.3889C132.706 27.594 135.077 17.7707 130.312 11.448C125.548 5.12532 115.451 4.69743 107.762 10.4923C100.072 16.2872 97.7005 26.1104 102.465 32.4331C107.23 38.7559 117.326 39.1838 125.016 33.3889Z" stroke="white" stroke-width="4" stroke-miterlimit="10"/>
<mask id="mask5_29_2445" style="mask-type:luminance" maskUnits="userSpaceOnUse" x="98" y="1" width="38" height="42">
<path d="M98.0183 34.8979L107.621 1.40623L135.207 9.3159L125.604 42.8076L98.0183 34.8979Z" fill="white"/>
</mask>
<g mask="url(#mask5_29_2445)">
<path d="M125.015 33.3889C132.705 27.594 135.076 17.7707 130.311 11.448C125.547 5.12532 115.45 4.69743 107.76 10.4923C100.071 16.2872 97.6993 26.1104 102.464 32.4331C107.229 38.7559 117.325 39.1838 125.015 33.3889Z" stroke="white" stroke-width="4" stroke-miterlimit="10"/>
</g>
<mask id="mask6_29_2445" style="mask-type:luminance" maskUnits="userSpaceOnUse" x="97" y="1" width="39" height="42">
<path d="M97.8854 35.0059L107.489 1.51431L135.075 9.42446L125.471 42.916L97.8854 35.0059Z" fill="white"/>
</mask>
<g mask="url(#mask6_29_2445)">
<path d="M93.9202 21.2412L121.746 0.273228L139.016 23.1922L111.191 44.1602L93.9202 21.2412Z" stroke="white" stroke-width="4" stroke-miterlimit="10"/>
</g>
<path d="M82.8539 18.8047L122.591 -11.1407L150.089 25.3479L110.351 55.2933L82.8539 18.8047Z" stroke="white" stroke-width="4" stroke-miterlimit="10"/>
</g>
<path d="M125.016 33.3894C132.706 27.5945 135.077 17.7712 130.313 11.4485C125.548 5.12581 115.452 4.69791 107.762 10.4928C100.072 16.2877 97.7007 26.1109 102.465 32.4336C107.23 38.7564 117.326 39.1842 125.016 33.3894Z" stroke="white" stroke-width="4" stroke-miterlimit="10"/>
<path d="M108.611 20.1222L111.379 18.1851L114.783 23.028C115.364 23.8029 115.807 24.6331 116.139 25.5463C116.332 26.2381 116.277 26.9853 116 27.6495C115.64 28.4797 115.059 29.1716 114.284 29.6697C113.371 30.3062 112.596 30.6659 111.932 30.7766C111.296 30.8873 110.632 30.7766 110.023 30.4999C109.359 30.1678 108.777 29.6974 108.335 29.0885L110.715 26.8746C110.908 27.179 111.157 27.4558 111.434 27.6772C111.628 27.8155 111.849 27.8986 112.098 27.8986C112.292 27.8986 112.486 27.8155 112.624 27.7048C112.901 27.5388 113.094 27.2067 113.067 26.8746C112.984 26.4042 112.79 25.9337 112.486 25.574L108.611 20.1222ZM116.913 23.194L119.432 21.2015C119.709 21.5336 120.068 21.7827 120.456 21.921C121.009 22.0871 121.59 21.9764 122.061 21.6166C122.393 21.3952 122.67 21.0908 122.78 20.7034C122.946 20.2053 122.67 19.6518 122.171 19.4857C122.088 19.4581 122.005 19.4304 121.922 19.4304C121.59 19.4027 121.009 19.5411 120.151 19.9009C118.74 20.482 117.633 20.7034 116.803 20.6204C116 20.5374 115.253 20.1222 114.81 19.4304C114.478 18.9599 114.312 18.4065 114.284 17.853C114.284 17.2165 114.45 16.58 114.81 16.0542C115.336 15.307 115.973 14.6705 116.747 14.1724C117.91 13.3699 118.934 12.9824 119.819 12.9824C120.705 12.9824 121.535 13.3975 122.31 14.2554L119.819 16.2202C119.321 15.5838 118.38 15.4454 117.744 15.9435L117.661 16.0265C117.384 16.1926 117.19 16.4416 117.079 16.746C116.996 16.9674 117.052 17.2165 117.19 17.4102C117.301 17.5486 117.467 17.6593 117.661 17.6593C117.882 17.687 118.269 17.5763 118.823 17.3272C120.207 16.7461 121.258 16.414 121.978 16.3033C122.587 16.1926 123.223 16.2479 123.804 16.497C124.33 16.7184 124.773 17.1058 125.077 17.5763C125.465 18.1297 125.686 18.7939 125.714 19.4857C125.741 20.2053 125.548 20.8971 125.16 21.5059C124.662 22.2531 124.026 22.8896 123.278 23.3877C121.756 24.4393 120.511 24.8821 119.515 24.7161C118.436 24.55 117.55 23.9966 116.913 23.194Z" fill="white"/>
</g>
</g>
</svg>
